<svg xmlns="http://www.w3.org/2000/svg" width="800" height="600" viewBox="0 0 800 600">
  <defs>
    <linearGradient id="g" x1="0" y1="0" x2="1" y2="1">
      <stop offset="0%" stop-color="#4a2632"/>
      <stop offset="100%" stop-color="#a44f69"/>
    </linearGradient>
  </defs>
  <rect width="800" height="600" fill="url(#g)"/>
  <rect x="58" y="52" width="684" height="496" rx="30" fill="rgba(255,255,255,0.10)" stroke="rgba(255,255,255,0.35)" stroke-width="2"/>
  <circle cx="400" cy="242" r="96" fill="rgba(255,255,255,0.16)"/>
  <path d="M9 18.5c-1.8 0-3-1.3-3-3v-4h1.8v3.6c0 .6.4 1 1 1 .5 0 1-.4 1-1V9.2h1.7v5.5c0 .6.4 1 1 1 .5 0 1-.4 1-1V9h1.7v5.5c0 .6.4 1 1 1s1-.4 1-1V11h1.8v4.8c0 1.8-1.4 3.2-3.2 3.2H9Z" transform="translate(320 162) scale(8.2)" fill="#eef6f1"/>
  <text x="400" y="410" text-anchor="middle" font-family="Segoe UI, Arial, sans-serif" font-size="44" fill="#eef6f1" letter-spacing="2">GUANTES</text>
  <text x="400" y="458" text-anchor="middle" font-family="Segoe UI, Arial, sans-serif" font-size="24" fill="rgba(238,246,241,0.84)">CATALOGO DE ASEO</text>
</svg>
