<svg xmlns="http://www.w3.org/2000/svg" width="800" height="600" viewBox="0 0 800 600">
  <defs>
    <linearGradient id="g" x1="0" y1="0" x2="1" y2="1">
      <stop offset="0%" stop-color="#1c2e4a"/>
      <stop offset="100%" stop-color="#3f6ab3"/>
    </linearGradient>
  </defs>
  <rect width="800" height="600" fill="url(#g)"/>
  <rect x="58" y="52" width="684" height="496" rx="30" fill="rgba(255,255,255,0.10)" stroke="rgba(255,255,255,0.35)" stroke-width="2"/>
  <circle cx="400" cy="242" r="96" fill="rgba(255,255,255,0.16)"/>
  <path d="M6.2 13.5h11.6l-1-3.2a2 2 0 0 0-1.9-1.4H9.1a2 2 0 0 0-1.9 1.4l-1 3.2Zm.8 1.6a1.4 1.4 0 1 0 0 2.8 1.4 1.4 0 0 0 0-2.8Zm10 0a1.4 1.4 0 1 0 0 2.8 1.4 1.4 0 0 0 0-2.8Z" transform="translate(320 162) scale(8.2)" fill="#eef6f1"/>
  <text x="400" y="410" text-anchor="middle" font-family="Segoe UI, Arial, sans-serif" font-size="44" fill="#eef6f1" letter-spacing="2">SHAMPOO CARRO</text>
  <text x="400" y="458" text-anchor="middle" font-family="Segoe UI, Arial, sans-serif" font-size="24" fill="rgba(238,246,241,0.84)">CATALOGO DE ASEO</text>
</svg>
